<svg xmlns="http://www.w3.org/2000/svg" xmlns:xlink="http://www.w3.org/1999/xlink" width="400" zoomAndPan="magnify" viewBox="0 0 300 374.999991" height="500" preserveAspectRatio="xMidYMid meet" version="1.0"><defs><g/></defs><rect x="-30" width="360" fill="#ffffff" y="-37.499999" height="449.999989" fill-opacity="1"/><rect x="-30" width="360" fill="#ffffff" y="-37.499999" height="449.999989" fill-opacity="1"/><rect x="-30" width="360" fill="#006a00" y="-37.499999" height="449.999989" fill-opacity="1"/><g fill="#ffffff" fill-opacity="0.4"><g transform="translate(99.500242, 336.310173)"><g><path d="M 74.09375 3.046875 C 58.132812 3.046875 43.316406 -0.304688 29.640625 -7.015625 C 15.960938 -13.734375 4.941406 -23.175781 -3.421875 -35.34375 L 18.625 -61.1875 C 33.3125 -40.15625 51.800781 -29.640625 74.09375 -29.640625 C 89.039062 -29.640625 100.378906 -34.195312 108.109375 -43.3125 C 115.835938 -52.4375 119.703125 -65.863281 119.703125 -83.59375 L 119.703125 -232.9375 L 23.5625 -232.9375 L 23.5625 -266 L 157.3125 -266 L 157.3125 -85.5 C 157.3125 -56.113281 150.28125 -34.007812 136.21875 -19.1875 C 122.164062 -4.363281 101.457031 3.046875 74.09375 3.046875 Z M 74.09375 3.046875 "/></g></g></g><g fill="#ffffff" fill-opacity="1"><g transform="translate(86.065047, 322.874979)"><g><path d="M 74.09375 3.046875 C 58.132812 3.046875 43.316406 -0.304688 29.640625 -7.015625 C 15.960938 -13.734375 4.941406 -23.175781 -3.421875 -35.34375 L 18.625 -61.1875 C 33.3125 -40.15625 51.800781 -29.640625 74.09375 -29.640625 C 89.039062 -29.640625 100.378906 -34.195312 108.109375 -43.3125 C 115.835938 -52.4375 119.703125 -65.863281 119.703125 -83.59375 L 119.703125 -232.9375 L 23.5625 -232.9375 L 23.5625 -266 L 157.3125 -266 L 157.3125 -85.5 C 157.3125 -56.113281 150.28125 -34.007812 136.21875 -19.1875 C 122.164062 -4.363281 101.457031 3.046875 74.09375 3.046875 Z M 74.09375 3.046875 "/></g></g></g></svg>